<svg width="53" height="48" viewBox="0 0 53 48" fill="none" xmlns="http://www.w3.org/2000/svg">
<path fill-rule="evenodd" clip-rule="evenodd" d="M45.6025 16.6997C44.9892 15.2637 44.308 13.6686 41.4658 14.6453V6.89655C41.4658 2.89523 34.7191 0 26.4995 0C18.2799 0 11.5332 2.89523 11.5332 6.89655V41.1034C11.5332 45.1048 18.2799 48 26.4995 48C34.7191 48 41.4658 45.1048 41.4658 41.1034V20.4599C44.0011 20.7935 44.5481 22.7863 44.0747 24.8474L46.6835 25.2612C47.2687 21.4816 45.9829 18.9679 41.4658 18.7711V17.1948C43.2015 16.3589 44.2627 17.7252 45.3507 19.1262C46.243 20.275 47.1533 21.4471 48.4684 21.4471C50.3907 21.4471 51.9011 20.4816 52.9995 18.5505L50.6653 15.3781C50.2076 17.4931 49.1092 18.5505 47.37 18.5505C46.393 18.5505 46.013 17.6607 45.6025 16.6997ZM30.4893 25.737C29.1588 25.4131 27.7909 25.0801 26.4444 25.0801C25.0764 25.0801 23.6942 25.42 22.3546 25.7494C18.8572 26.6094 15.6505 27.398 13.7448 21.879C11.4201 15.1465 16.7268 16.6302 21.5654 17.9829L21.5654 17.9829C23.4428 18.5078 25.2498 19.013 26.5131 19.0109C27.7272 19.0088 29.4704 18.5356 31.2931 18.0407C36.09 16.7385 41.438 15.2867 39.1444 21.879C37.2309 27.378 33.9893 26.5889 30.4893 25.737ZM19.7652 20.7469C19.1758 20.4767 18.5923 20.2286 18.0416 20.049C17.9647 21.0237 18.3852 21.9303 19.3234 22.8138C20.1422 23.585 20.9139 23.675 21.7414 23.0086C22.0141 22.7081 22.2503 22.369 22.4502 21.9914C22.1135 21.8503 21.763 21.6901 21.4051 21.5219C21.4144 21.5796 21.4192 21.6387 21.4192 21.699C21.4192 22.3085 20.9274 22.8025 20.3208 22.8025C19.7141 22.8025 19.2223 22.3085 19.2223 21.699C19.2223 21.2932 19.4404 20.9386 19.7652 20.7469ZM14.8285 21.0094C15.183 19.9412 15.9685 19.6619 16.9632 19.7909C16.7955 21.1648 17.3396 22.458 18.5721 23.6188C18.9273 23.9533 19.2866 24.1983 19.6473 24.3556C19.0709 24.5544 18.4258 24.6804 17.712 24.7335C20.5027 25.2592 22.5041 24.4911 23.7162 22.4292C24.8802 22.7109 25.6757 22.4358 25.6757 20.8715C25.2704 22.4999 23.4248 21.3818 21.3639 20.1332C18.537 18.4205 15.305 16.4624 14.8285 21.0094ZM31.5863 21.4993C31.225 21.6858 30.8709 21.8604 30.5292 22.0068C30.7298 22.3874 30.9674 22.7289 31.2417 23.0312C32.0693 23.6977 32.8409 23.6076 33.6598 22.8364C34.642 21.9114 35.0568 20.9611 34.9275 19.9338C34.3347 20.111 33.7166 20.3947 33.0979 20.7084C33.4879 20.8778 33.7608 21.2677 33.7608 21.7217C33.7608 22.3311 33.2691 22.8251 32.6624 22.8251C32.0557 22.8251 31.564 22.3311 31.564 21.7217C31.564 21.6455 31.5716 21.5712 31.5863 21.4993ZM27.5711 21.7217C27.9859 22.3328 28.5622 22.4964 29.2384 22.4028C30.4475 24.5015 32.4584 25.286 35.2712 24.7562C34.5574 24.7031 33.9123 24.5771 33.3359 24.3782C33.6966 24.2209 34.0559 23.976 34.4111 23.6414C35.6641 22.4614 36.2055 21.1445 36.011 19.745C36.8494 19.7257 37.5931 20.0648 38.1546 21.032C37.6206 16.0912 34.563 18.0921 31.71 19.959C30.1029 21.0107 28.5606 22.0199 27.5711 21.7217ZM27.0219 19.6527C27.0219 20.4218 27.4338 21.032 28.1203 21.17C27.4338 21.3079 26.61 20.7562 27.0219 19.6527ZM39.5436 6.89655C39.5436 9.59882 33.7487 12.1379 26.4995 12.1379C19.2504 12.1379 13.4555 9.59882 13.4555 6.89655C13.4555 4.19428 19.2504 1.65517 26.4995 1.65517C33.7487 1.65517 39.5436 4.19428 39.5436 6.89655Z" fill="#1D1D1F"/>
<ellipse cx="26.5002" cy="6.89632" rx="6.45336" ry="2.75862" fill="#FF6633"/>
</svg>